
<svg width="118" height="32" viewBox="0 0 118 32" fill="none" xmlns="http://www.w3.org/2000/svg">
<path d="M10.6921 0.00168501L0.000976562 10.6672L5.3478 16.0013L16.0389 5.33572L10.6921 0.00168501Z" fill="#EE6930"/>
<path d="M21.3859 -5.25951e-05L16.0391 5.33398L26.7302 15.9995L32.077 10.6655L21.3859 -5.25951e-05Z" fill="#EE6930"/>
<path d="M26.7321 16.0002L16.041 26.6658L21.3878 31.9998L32.0789 21.3343L26.7321 16.0002Z" fill="#EE6930"/>
<path d="M5.34682 15.9995L0 21.3335L10.6911 31.999L16.0379 26.665L5.34682 15.9995Z" fill="#EE6930"/>
<path d="M55.5246 27.2954C53.5779 25.3533 52.6045 23.0078 52.6045 20.2624V0.366455H57.5895V20.2624C57.5895 21.6369 58.0762 22.8079 59.0496 23.7789C60.023 24.75 61.1968 25.2355 62.5745 25.2355C63.9451 25.2355 65.1153 24.75 66.0887 23.7789C67.0693 22.8079 67.5595 21.6369 67.5595 20.2624C67.5595 18.8951 67.0693 17.7277 66.0887 16.7566C65.1153 15.7784 63.9416 15.2893 62.5745 15.2893V10.3126C65.3193 10.3126 67.6669 11.2873 69.6137 13.2365C71.5676 15.1786 72.5446 17.5206 72.5446 20.2588C72.5446 23.0042 71.5676 25.3497 69.6137 27.2919C67.6669 29.234 65.3193 30.205 62.5745 30.205C59.8226 30.2086 57.4714 29.2375 55.5246 27.2954Z" fill="#3E8B69"/>
<path d="M78.2522 27.2954C76.3054 25.3533 75.332 23.0077 75.332 20.2624C75.332 17.5241 76.3054 15.1822 78.2522 13.24C80.199 11.2908 82.5501 10.3162 85.3021 10.3162C88.0469 10.3162 90.3944 11.2908 92.3412 13.24C94.2951 15.1822 95.2721 17.5241 95.2721 20.2624C95.2721 23.0077 94.2951 25.3533 92.3412 27.2954C90.3944 29.2375 88.0469 30.2085 85.3021 30.2085C82.5501 30.2085 80.199 29.2375 78.2522 27.2954ZM88.8163 23.7789C89.7968 22.8078 90.2871 21.6368 90.2871 20.2624C90.2871 18.895 89.7968 17.7276 88.8163 16.7566C87.8429 15.7784 86.6691 15.2893 85.3021 15.2893C83.9243 15.2893 82.7505 15.7784 81.7771 16.7566C80.8037 17.7276 80.317 18.895 80.317 20.2624C80.317 21.6368 80.8037 22.8078 81.7771 23.7789C82.7505 24.7499 83.9243 25.2355 85.3021 25.2355C86.6727 25.2355 87.8429 24.7499 88.8163 23.7789Z" fill="#3E8B69"/>
<path d="M100.98 17.3455C99.0334 15.4034 98.0601 13.0579 98.0601 10.3125H103.045C103.045 11.687 103.532 12.858 104.505 13.829C105.479 14.8001 106.652 15.2856 108.03 15.2856C109.401 15.2856 110.571 14.8001 111.544 13.829C112.525 12.858 113.015 11.687 113.015 10.3125H118C118 13.0579 117.023 15.4034 115.069 17.3455C113.122 19.2876 110.775 20.2587 108.03 20.2587C105.278 20.2623 102.927 19.2876 100.98 17.3455ZM98.0601 30.2085C98.0601 27.4702 99.0334 25.1283 100.98 23.1861C102.927 21.2369 105.278 20.2623 108.03 20.2623C110.775 20.2623 113.122 21.2369 115.069 23.1861C117.023 25.1283 118 27.4702 118 30.2085H113.015C113.015 28.8411 112.525 27.6737 111.544 26.7027C110.571 25.7245 109.397 25.2354 108.03 25.2354C106.652 25.2354 105.479 25.7245 104.505 26.7027C103.532 27.6737 103.045 28.8447 103.045 30.2085H98.0601Z" fill="#3E8B69"/>
<path d="M44.8283 9.40231C46.4816 9.40231 47.8236 8.06354 47.8236 6.41417C47.8236 4.7648 46.4816 3.42603 44.8283 3.42603C43.175 3.42603 41.833 4.7648 41.833 6.41417C41.833 8.06354 43.175 9.40231 44.8283 9.40231Z" fill="#3E8B69"/>
<path d="M42.3374 11.6335V16.5781C42.2551 17.2671 42.3374 18.0739 42.3374 19.2985V22.3187V24.2716C42.3374 27.0169 44.5704 29.2447 47.3224 29.2447V25.1712V19.2985V16.6066C47.3224 13.8577 45.0893 11.6335 42.3374 11.6335Z" fill="#3E8B69"/>
</svg>
